<svg width="36" height="22" viewBox="0 0 36 22" fill="none" xmlns="http://www.w3.org/2000/svg">
<path d="M17.8984 21.9258C16.9219 21.9258 16.1211 21.5742 15.3594 20.7734L0.886719 6.00781C0.300781 5.42188 0.0078125 4.69922 0.0078125 3.83984C0.0078125 2.12109 1.41406 0.714844 3.11328 0.714844C3.97266 0.714844 4.77344 1.06641 5.39844 1.71094L17.8789 14.582L30.3789 1.71094C31.0234 1.06641 31.8047 0.714844 32.6836 0.714844C34.4023 0.714844 35.7891 2.12109 35.7891 3.83984C35.7891 4.69922 35.4961 5.42188 34.9102 6.00781L20.4375 20.7734C19.6562 21.5938 18.8555 21.9258 17.8984 21.9258Z" fill="#FAEEE8"/>
</svg>
